# xmcd
#
# Track frame offsets:
#	150
#	3854
#	22266
#	41017
#	59521
#	61778
#	81965
#	99118
#	101770
#	123060
#	139701
#	143135
#	161586
#	182922
#
# Disc length: 2624 seconds
#
# Revision: 0
# Processed by: cddbd v1.5.1PL0 Copyright (c) Steve Scherf et al.
# Submitted via: dBpowerAMP V4.0
#
DISCID=b50a3e0e
DTITLE=OMAR CUNNINGHAM - OMAR CUNNINGHAM
DYEAR=2004
DGENRE=Blues
TTITLE0=INTRO
TTITLE1=GET BY
TTITLE2=SWEET SWEET
TTITLE3=SHE'S MAKIN' EYES
TTITLE4=INTERLUDE
TTITLE5=SORRY MAN
TTITLE6=MY BABY
TTITLE7=INTERLUDE
TTITLE8=MOMMA
TTITLE9=WHY YOU WANNA
TTITLE10=INTERLUDE
TTITLE11=SHYTERS AND WANNABES
TTITLE12=OVER AND OVER
TTITLE13=THANK YOU JESUS
EXTD=Omar Cunningham-Omar Cunningham(2004)
EXTT0=
EXTT1=
EXTT2=
EXTT3=
EXTT4=
EXTT5=
EXTT6=
EXTT7=
EXTT8=
EXTT9=
EXTT10=
EXTT11=
EXTT12=
EXTT13=
PLAYORDER=
